<svg xmlns="http://www.w3.org/2000/svg" viewBox="0 0 96 120" x="0px" y="0px"><title>Asset 66</title><g data-name="Layer 2"><g><path d="M48,96A48,48,0,1,1,74,7.64a1.5,1.5,0,0,1-1.63,2.52A45,45,0,1,0,93,48a1.5,1.5,0,0,1,3,0A48.05,48.05,0,0,1,48,96Z"/><path d="M48.34,63.16a1.5,1.5,0,0,1-1.06-.44l-22-22a1.5,1.5,0,0,1,2.12-2.12L48.34,59.54,92.6,15.28a1.5,1.5,0,0,1,2.12,2.12L49.4,62.72A1.5,1.5,0,0,1,48.34,63.16Z"/></g></g><text x="0" y="111" fill="#000000" font-size="5px" font-weight="bold" font-family="'Helvetica Neue', Helvetica, Arial-Unicode, Arial, Sans-serif">Created by StoneHub</text><text x="0" y="116" fill="#000000" font-size="5px" font-weight="bold" font-family="'Helvetica Neue', Helvetica, Arial-Unicode, Arial, Sans-serif">from the Noun Project</text></svg>